# Blender 4.4.1
# www.blender.org
mtllib newPlayer.mtl
o 円錐
v 0.000000 0.239043 0.163715
v 0.009755 0.238364 0.164395
v 0.019134 0.236352 0.166406
v 0.027779 0.233084 0.169674
v 0.035355 0.228688 0.174071
v 0.041573 0.223330 0.179428
v 0.046194 0.217217 0.185541
v 0.049039 0.210585 0.192173
v 0.050000 0.203688 0.199071
v 0.049039 0.196790 0.205968
v 0.046194 0.190158 0.212600
v 0.041573 0.184045 0.218713
v 0.035355 0.178688 0.224071
v 0.027779 0.174291 0.228467
v 0.019134 0.171023 0.231735
v 0.009755 0.169012 0.233747
v 0.000000 0.168332 0.234426
v -0.009755 0.169012 0.233747
v -0.019134 0.171023 0.231735
v -0.027779 0.174291 0.228467
v -0.035355 0.178688 0.224071
v -0.041573 0.184045 0.218713
v -0.046194 0.190158 0.212600
v -0.049039 0.196790 0.205968
v -0.050000 0.203688 0.199071
v -0.049039 0.210585 0.192173
v -0.046194 0.217217 0.185541
v -0.041573 0.223330 0.179428
v -0.035355 0.228688 0.174071
v -0.027779 0.233084 0.169674
v -0.019134 0.236352 0.166406
v -0.009755 0.238364 0.164395
v 0.000000 0.415820 0.411203
v 0.250000 0.250000 -0.250000
v 0.250000 -0.250000 -0.250000
v 0.250000 0.250000 0.250000
v 0.250000 -0.250000 0.250000
v -0.250000 0.250000 -0.250000
v -0.250000 -0.250000 -0.250000
v -0.250000 0.250000 0.250000
v -0.250000 -0.250000 0.250000
v 0.046357 -0.243087 0.436669
v 0.046357 -0.143087 0.436669
v 0.046357 -0.243087 0.236669
v 0.046357 -0.143087 0.236669
v 0.246357 -0.243087 0.436669
v 0.246357 -0.143087 0.436669
v 0.246357 -0.243087 0.236669
v 0.246357 -0.143087 0.236669
v -0.242308 -0.243087 0.436669
v -0.242308 -0.143087 0.436669
v -0.242308 -0.243087 0.236669
v -0.242308 -0.143087 0.236669
v -0.042308 -0.243087 0.436669
v -0.042308 -0.143087 0.436669
v -0.042308 -0.243087 0.236669
v -0.042308 -0.143087 0.236669
vn 0.0967 0.8099 -0.5785
vn 0.2864 0.7832 -0.5518
vn 0.4650 0.7309 -0.4995
vn 0.6258 0.6549 -0.4235
vn 0.7626 0.5582 -0.3268
vn 0.8700 0.4445 -0.2131
vn 0.9440 0.3182 -0.0868
vn 0.9818 0.1841 0.0473
vn 0.9818 0.0473 0.1841
vn 0.9440 -0.0868 0.3182
vn 0.8700 -0.2131 0.4445
vn 0.7626 -0.3268 0.5582
vn 0.6258 -0.4235 0.6549
vn 0.4650 -0.4995 0.7309
vn 0.2864 -0.5518 0.7832
vn 0.0967 -0.5785 0.8099
vn -0.0967 -0.5785 0.8099
vn -0.2864 -0.5518 0.7832
vn -0.4650 -0.4995 0.7309
vn -0.6258 -0.4235 0.6549
vn -0.7626 -0.3268 0.5582
vn -0.8700 -0.2131 0.4445
vn -0.9440 -0.0868 0.3182
vn -0.9818 0.0473 0.1841
vn -0.9818 0.1841 0.0473
vn -0.9440 0.3182 -0.0868
vn -0.8700 0.4445 -0.2131
vn -0.7626 0.5582 -0.3268
vn -0.6258 0.6549 -0.4235
vn -0.4650 0.7309 -0.4995
vn -0.0000 -0.7071 -0.7071
vn -0.2864 0.7832 -0.5518
vn -0.0967 0.8099 -0.5785
vn -0.0000 1.0000 -0.0000
vn -0.0000 -0.0000 1.0000
vn -1.0000 -0.0000 -0.0000
vn -0.0000 -1.0000 -0.0000
vn 1.0000 -0.0000 -0.0000
vn -0.0000 -0.0000 -1.0000
vt 0.018983 0.939706
vt 0.107730 0.892270
vt 0.029943 0.956108
vt 0.043892 0.970057
vt 0.060294 0.981017
vt 0.078519 0.988566
vt 0.097866 0.992414
vt 0.117593 0.992414
vt 0.136941 0.988566
vt 0.155166 0.981017
vt 0.171568 0.970057
vt 0.185517 0.956108
vt 0.196476 0.939706
vt 0.204025 0.921481
vt 0.207874 0.902134
vt 0.207874 0.882407
vt 0.204025 0.863059
vt 0.196476 0.844834
vt 0.185517 0.828432
vt 0.171568 0.814483
vt 0.155166 0.803524
vt 0.136941 0.795974
vt 0.117593 0.792126
vt 0.097866 0.792126
vt 0.078519 0.795974
vt 0.060294 0.803524
vt 0.043892 0.814483
vt 0.029943 0.828432
vt 0.018983 0.844834
vt 0.011434 0.863059
vt 0.007586 0.882407
vt 0.007586 0.902133
vt 0.223045 0.865550
vt 0.223045 0.852384
vt 0.225614 0.839470
vt 0.230652 0.827306
vt 0.237967 0.816358
vt 0.247278 0.807048
vt 0.258225 0.799733
vt 0.270389 0.794695
vt 0.283303 0.792126
vt 0.296470 0.792126
vt 0.309383 0.794695
vt 0.321547 0.799733
vt 0.332495 0.807048
vt 0.341805 0.816358
vt 0.349120 0.827306
vt 0.354159 0.839470
vt 0.356727 0.852384
vt 0.356727 0.865550
vt 0.354159 0.878464
vt 0.349120 0.890628
vt 0.341805 0.901576
vt 0.332495 0.910886
vt 0.321547 0.918201
vt 0.309383 0.923240
vt 0.296470 0.925808
vt 0.283303 0.925808
vt 0.270389 0.923240
vt 0.258225 0.918201
vt 0.247278 0.910886
vt 0.237967 0.901576
vt 0.230652 0.890628
vt 0.225614 0.878464
vt 0.011434 0.921481
vt 0.371899 0.792126
vt 0.253488 0.007586
vt 0.348473 0.039247
vt 0.462455 0.203888
vt 0.367470 0.172226
vt 0.377498 0.458760
vt 0.282513 0.427098
vt 0.187528 0.522083
vt 0.092543 0.490422
vt 0.102571 0.776955
vt 0.007586 0.745293
vt 0.197556 0.172227
vt 0.007586 0.235550
vt 0.462455 0.713631
vt 0.272485 0.776955
vt 0.686594 0.776955
vt 0.591609 0.745293
vt 0.477626 0.580652
vt 0.572612 0.612314
vt 0.562584 0.325781
vt 0.657569 0.357442
vt 0.752554 0.262457
vt 0.847539 0.294119
vt 0.837511 0.007586
vt 0.932496 0.039247
vt 0.742526 0.612314
vt 0.932496 0.548991
vt 0.477626 0.070909
vt 0.667596 0.007586
s 0
usemtl マテリアル
f 1/1/1 33/2/1 2/3/1
f 2/3/2 33/2/2 3/4/2
f 3/4/3 33/2/3 4/5/3
f 4/5/4 33/2/4 5/6/4
f 5/6/5 33/2/5 6/7/5
f 6/7/6 33/2/6 7/8/6
f 7/8/7 33/2/7 8/9/7
f 8/9/8 33/2/8 9/10/8
f 9/10/9 33/2/9 10/11/9
f 10/11/10 33/2/10 11/12/10
f 11/12/11 33/2/11 12/13/11
f 12/13/12 33/2/12 13/14/12
f 13/14/13 33/2/13 14/15/13
f 14/15/14 33/2/14 15/16/14
f 15/16/15 33/2/15 16/17/15
f 16/17/16 33/2/16 17/18/16
f 17/18/17 33/2/17 18/19/17
f 18/19/18 33/2/18 19/20/18
f 19/20/19 33/2/19 20/21/19
f 20/21/20 33/2/20 21/22/20
f 21/22/21 33/2/21 22/23/21
f 22/23/22 33/2/22 23/24/22
f 23/24/23 33/2/23 24/25/23
f 24/25/24 33/2/24 25/26/24
f 25/26/25 33/2/25 26/27/25
f 26/27/26 33/2/26 27/28/26
f 27/28/27 33/2/27 28/29/27
f 28/29/28 33/2/28 29/30/28
f 29/30/29 33/2/29 30/31/29
f 30/31/30 33/2/30 31/32/30
f 1/33/31 2/34/31 3/35/31 4/36/31 5/37/31 6/38/31 7/39/31 8/40/31 9/41/31 10/42/31 11/43/31 12/44/31 13/45/31 14/46/31 15/47/31 16/48/31 17/49/31 18/50/31 19/51/31 20/52/31 21/53/31 22/54/31 23/55/31 24/56/31 25/57/31 26/58/31 27/59/31 28/60/31 29/61/31 30/62/31 31/63/31 32/64/31
f 31/32/32 33/2/32 32/65/32
f 32/65/33 33/2/33 1/1/33
f 42/67/36 43/68/36 45/69/36 44/70/36
f 44/70/39 45/69/39 49/71/39 48/72/39
f 48/72/38 49/71/38 47/73/38 46/74/38
f 46/74/35 47/73/35 43/75/35 42/76/35
f 44/77/37 48/72/37 46/74/37 42/78/37
f 49/71/34 45/79/34 43/80/34 47/73/34
f 50/81/36 51/82/36 53/83/36 52/84/36
f 52/84/39 53/83/39 57/85/39 56/86/39
f 56/86/38 57/85/38 55/87/38 54/88/38
f 54/88/35 55/87/35 51/89/35 50/90/35
f 52/91/37 56/86/37 54/88/37 50/92/37
f 57/85/34 53/93/34 51/94/34 55/87/34
usemtl Material
f 34/66/34 38/66/34 40/66/34 36/66/34
f 37/66/35 36/66/35 40/66/35 41/66/35
f 41/66/36 40/66/36 38/66/36 39/66/36
f 39/66/37 35/66/37 37/66/37 41/66/37
f 35/66/38 34/66/38 36/66/38 37/66/38
f 39/66/39 38/66/39 34/66/39 35/66/39
