# Blender 4.4.1
# www.blender.org
mtllib bullet5.mtl
o 円錐
v 0.000000 -0.354780 -0.500000
v 0.097545 -0.354780 -0.490393
v 0.191342 -0.354780 -0.461940
v 0.277785 -0.354780 -0.415735
v 0.353553 -0.354780 -0.353553
v 0.415735 -0.354780 -0.277785
v 0.461940 -0.354780 -0.191342
v 0.490393 -0.354780 -0.097545
v 0.500000 -0.354780 0.000000
v 0.490393 -0.354780 0.097545
v 0.461940 -0.354780 0.191342
v 0.415735 -0.354780 0.277785
v 0.353553 -0.354780 0.353553
v 0.277785 -0.354780 0.415735
v 0.191342 -0.354780 0.461940
v 0.097545 -0.354780 0.490393
v 0.000000 -0.354780 0.500000
v -0.097545 -0.354780 0.490393
v -0.191342 -0.354780 0.461940
v -0.277785 -0.354780 0.415735
v -0.353553 -0.354780 0.353553
v -0.415735 -0.354780 0.277785
v -0.461940 -0.354780 0.191342
v -0.490393 -0.354780 0.097545
v -0.500000 -0.354780 0.000000
v -0.490393 -0.354780 -0.097545
v -0.461940 -0.354780 -0.191342
v -0.415735 -0.354780 -0.277785
v -0.353553 -0.354780 -0.353553
v -0.277785 -0.354780 -0.415735
v -0.191342 -0.354780 -0.461940
v -0.097545 -0.354780 -0.490393
v 0.000000 0.367847 0.000000
v -0.000000 -1.584566 -0.424151
v 0.082748 -1.584566 -0.416001
v 0.162316 -1.584566 -0.391865
v 0.235646 -1.584566 -0.352669
v 0.299920 -1.584566 -0.299920
v 0.352669 -1.584566 -0.235646
v 0.391865 -1.584566 -0.162316
v 0.416001 -1.584566 -0.082748
v 0.424151 -1.584566 -0.000000
v 0.416001 -1.584566 0.082748
v 0.391865 -1.584566 0.162316
v 0.352669 -1.584566 0.235646
v 0.299920 -1.584566 0.299920
v 0.235646 -1.584566 0.352669
v 0.162316 -1.584566 0.391865
v 0.082748 -1.584566 0.416001
v -0.000000 -1.584566 0.424151
v -0.082748 -1.584566 0.416001
v -0.162316 -1.584566 0.391865
v -0.235646 -1.584566 0.352669
v -0.299920 -1.584566 0.299920
v -0.352669 -1.584566 0.235646
v -0.391865 -1.584566 0.162316
v -0.416001 -1.584566 0.082748
v -0.424151 -1.584566 -0.000000
v -0.416001 -1.584566 -0.082748
v -0.391865 -1.584566 -0.162316
v -0.352669 -1.584566 -0.235646
v -0.299920 -1.584566 -0.299920
v -0.235646 -1.584566 -0.352669
v -0.162316 -1.584566 -0.391865
v -0.082748 -1.584566 -0.416001
v 0.000000 -1.685060 -0.424151
v 0.082748 -1.685060 -0.416001
v 0.162316 -1.685060 -0.391865
v 0.235646 -1.685060 -0.352669
v 0.299920 -1.685060 -0.299920
v 0.352669 -1.685060 -0.235646
v 0.391865 -1.685060 -0.162316
v 0.416001 -1.685060 -0.082748
v 0.424151 -1.685060 -0.000000
v 0.416001 -1.685060 0.082748
v 0.391865 -1.685060 0.162316
v 0.352669 -1.685060 0.235646
v 0.299920 -1.685060 0.299920
v 0.235646 -1.685060 0.352669
v 0.162316 -1.685060 0.391865
v 0.082748 -1.685060 0.416001
v 0.000000 -1.685060 0.424151
v -0.082748 -1.685060 0.416001
v -0.162316 -1.685060 0.391865
v -0.235646 -1.685060 0.352669
v -0.299920 -1.685060 0.299920
v -0.352669 -1.685060 0.235646
v -0.391865 -1.685060 0.162316
v -0.416001 -1.685060 0.082748
v -0.424151 -1.685060 -0.000000
v -0.416001 -1.685060 -0.082748
v -0.391865 -1.685060 -0.162316
v -0.352669 -1.685060 -0.235646
v -0.299920 -1.685060 -0.299920
v -0.235646 -1.685060 -0.352669
v -0.162316 -1.685060 -0.391865
v -0.082748 -1.685060 -0.416001
v -0.000000 -1.908244 -0.500000
v 0.097545 -1.908244 -0.490393
v 0.191342 -1.908244 -0.461940
v 0.277785 -1.908244 -0.415735
v 0.353553 -1.908244 -0.353553
v 0.415735 -1.908244 -0.277785
v 0.461940 -1.908244 -0.191342
v 0.490393 -1.908244 -0.097545
v 0.500000 -1.908244 0.000000
v 0.490393 -1.908244 0.097545
v 0.461940 -1.908244 0.191342
v 0.415735 -1.908244 0.277785
v 0.353553 -1.908244 0.353553
v 0.277785 -1.908244 0.415735
v 0.191342 -1.908244 0.461940
v 0.097545 -1.908244 0.490393
v -0.000000 -1.908244 0.500000
v -0.097545 -1.908244 0.490393
v -0.191342 -1.908244 0.461940
v -0.277785 -1.908244 0.415735
v -0.353553 -1.908244 0.353553
v -0.415735 -1.908244 0.277785
v -0.461940 -1.908244 0.191342
v -0.490393 -1.908244 0.097545
v -0.500000 -1.908244 0.000000
v -0.490393 -1.908244 -0.097545
v -0.461940 -1.908244 -0.191342
v -0.415735 -1.908244 -0.277785
v -0.353553 -1.908244 -0.353553
v -0.277785 -1.908244 -0.415735
v -0.191342 -1.908244 -0.461940
v -0.097545 -1.908244 -0.490393
v -0.000000 -1.520909 -0.500000
v 0.097545 -1.520909 -0.490393
v 0.191342 -1.520909 -0.461940
v 0.277785 -1.520909 -0.415735
v 0.353553 -1.520909 -0.353553
v 0.415735 -1.520909 -0.277785
v 0.461940 -1.520909 -0.191342
v 0.490393 -1.520909 -0.097545
v 0.500000 -1.520909 0.000000
v 0.490393 -1.520909 0.097545
v 0.461940 -1.520909 0.191342
v 0.415735 -1.520909 0.277785
v 0.353553 -1.520909 0.353553
v 0.277785 -1.520909 0.415735
v 0.191342 -1.520909 0.461940
v 0.097545 -1.520909 0.490393
v -0.000000 -1.520909 0.500000
v -0.097545 -1.520909 0.490393
v -0.191342 -1.520909 0.461940
v -0.277785 -1.520909 0.415735
v -0.353553 -1.520909 0.353553
v -0.415735 -1.520909 0.277785
v -0.461940 -1.520909 0.191342
v -0.490393 -1.520909 0.097545
v -0.500000 -1.520909 0.000000
v -0.490393 -1.520909 -0.097545
v -0.461940 -1.520909 -0.191342
v -0.415735 -1.520909 -0.277785
v -0.353553 -1.520909 -0.353553
v -0.277785 -1.520909 -0.415735
v -0.191342 -1.520909 -0.461940
v -0.097545 -1.520909 -0.490393
v 0.000000 -1.740842 -0.500000
v 0.097545 -1.740842 -0.490393
v 0.191342 -1.740842 -0.461940
v 0.277785 -1.740842 -0.415735
v 0.353553 -1.740842 -0.353553
v 0.415735 -1.740842 -0.277785
v 0.461940 -1.740842 -0.191342
v 0.490393 -1.740842 -0.097545
v 0.500000 -1.740842 0.000000
v 0.490393 -1.740842 0.097545
v 0.461940 -1.740842 0.191342
v 0.415735 -1.740842 0.277785
v 0.353553 -1.740842 0.353553
v 0.277785 -1.740842 0.415735
v 0.191342 -1.740842 0.461940
v 0.097545 -1.740842 0.490393
v 0.000000 -1.740842 0.500000
v -0.097545 -1.740842 0.490393
v -0.191342 -1.740842 0.461940
v -0.277785 -1.740842 0.415735
v -0.353553 -1.740842 0.353553
v -0.415735 -1.740842 0.277785
v -0.461940 -1.740842 0.191342
v -0.490393 -1.740842 0.097545
v -0.500000 -1.740842 0.000000
v -0.490393 -1.740842 -0.097545
v -0.461940 -1.740842 -0.191342
v -0.415735 -1.740842 -0.277785
v -0.353553 -1.740842 -0.353553
v -0.277785 -1.740842 -0.415735
v -0.191342 -1.740842 -0.461940
v -0.097545 -1.740842 -0.490393
vn 0.0807 0.5671 -0.8197
vn 0.2391 0.5671 -0.7882
vn 0.3883 0.5671 -0.7264
vn 0.5225 0.5671 -0.6367
vn 0.6367 0.5671 -0.5225
vn 0.7264 0.5671 -0.3883
vn 0.7882 0.5671 -0.2391
vn 0.8197 0.5671 -0.0807
vn 0.8197 0.5671 0.0807
vn 0.7882 0.5671 0.2391
vn 0.7264 0.5671 0.3883
vn 0.6367 0.5671 0.5225
vn 0.5225 0.5671 0.6367
vn 0.3883 0.5671 0.7264
vn 0.2391 0.5671 0.7882
vn 0.0807 0.5671 0.8197
vn -0.0807 0.5671 0.8197
vn -0.2391 0.5671 0.7882
vn -0.3883 0.5671 0.7264
vn -0.5225 0.5671 0.6367
vn -0.6367 0.5671 0.5225
vn -0.7264 0.5671 0.3883
vn -0.7882 0.5671 0.2391
vn -0.8197 0.5671 0.0807
vn -0.8197 0.5671 -0.0807
vn -0.7882 0.5671 -0.2391
vn -0.7264 0.5671 -0.3883
vn -0.6367 0.5671 -0.5225
vn -0.5225 0.5671 -0.6367
vn -0.3883 0.5671 -0.7264
vn -0.4714 -0.0000 0.8819
vn -0.2391 0.5671 -0.7882
vn -0.0807 0.5671 -0.8197
vn 0.4714 -0.0000 0.8819
vn -0.9569 -0.0000 -0.2903
vn 0.8819 -0.0000 -0.4714
vn 0.6344 -0.0000 0.7730
vn -0.6344 -0.0000 0.7730
vn -0.8819 -0.0000 -0.4714
vn 0.9569 -0.0000 -0.2903
vn 0.0980 -0.0000 -0.9952
vn -0.7730 -0.0000 0.6344
vn -0.7730 -0.0000 -0.6344
vn 0.9952 -0.0000 -0.0980
vn 0.2903 -0.0000 0.9569
vn -0.8819 -0.0000 0.4714
vn 0.2903 -0.0000 -0.9569
vn -0.6344 -0.0000 -0.7730
vn 0.9952 -0.0000 0.0980
vn 0.0980 -0.0000 0.9952
vn -0.9569 -0.0000 0.2903
vn 0.4714 -0.0000 -0.8819
vn -0.4714 -0.0000 -0.8819
vn 0.9569 -0.0000 0.2903
vn -0.0980 -0.0000 0.9952
vn -0.9952 -0.0000 0.0980
vn 0.6344 -0.0000 -0.7730
vn -0.2903 -0.0000 -0.9569
vn 0.8819 -0.0000 0.4714
vn -0.2903 -0.0000 0.9569
vn -0.9952 -0.0000 -0.0980
vn 0.7730 -0.0000 -0.6344
vn -0.0980 -0.0000 -0.9952
vn 0.7730 -0.0000 0.6344
vn -0.0000 -1.0000 -0.0000
vn 0.0632 -0.7645 -0.6416
vn 0.1871 -0.7645 -0.6169
vn 0.3039 -0.7645 -0.5686
vn 0.4090 -0.7645 -0.4983
vn 0.4983 -0.7645 -0.4090
vn 0.5686 -0.7645 -0.3039
vn 0.6169 -0.7645 -0.1871
vn 0.6416 -0.7645 -0.0632
vn 0.6416 -0.7645 0.0632
vn 0.6169 -0.7645 0.1871
vn 0.5686 -0.7645 0.3039
vn 0.4983 -0.7645 0.4090
vn 0.4090 -0.7645 0.4983
vn 0.3039 -0.7645 0.5686
vn 0.1871 -0.7645 0.6169
vn 0.0632 -0.7645 0.6416
vn -0.0632 -0.7645 0.6416
vn -0.1871 -0.7645 0.6169
vn -0.3039 -0.7645 0.5686
vn -0.4090 -0.7645 0.4983
vn -0.4983 -0.7645 0.4090
vn -0.5686 -0.7645 0.3039
vn -0.6169 -0.7645 0.1871
vn -0.6416 -0.7645 0.0632
vn -0.6416 -0.7645 -0.0632
vn -0.6169 -0.7645 -0.1871
vn -0.5686 -0.7645 -0.3039
vn -0.4983 -0.7645 -0.4090
vn -0.4090 -0.7645 -0.4983
vn -0.3039 -0.7645 -0.5686
vn -0.1871 -0.7645 -0.6169
vn -0.0632 -0.7645 -0.6416
vn 0.0583 0.8042 -0.5915
vn 0.1725 0.8042 -0.5687
vn 0.2802 0.8042 -0.5241
vn 0.3770 0.8042 -0.4594
vn 0.4594 0.8042 -0.3770
vn 0.5241 0.8042 -0.2802
vn 0.5687 0.8042 -0.1725
vn 0.5915 0.8042 -0.0583
vn 0.5915 0.8042 0.0583
vn 0.5687 0.8042 0.1725
vn 0.5241 0.8042 0.2802
vn 0.4594 0.8042 0.3770
vn 0.3770 0.8042 0.4594
vn 0.2802 0.8042 0.5241
vn 0.1725 0.8042 0.5687
vn 0.0583 0.8042 0.5915
vn -0.0583 0.8042 0.5915
vn -0.1725 0.8042 0.5687
vn -0.2802 0.8042 0.5241
vn -0.3770 0.8042 0.4594
vn -0.4594 0.8042 0.3770
vn -0.5241 0.8042 0.2802
vn -0.5687 0.8042 0.1725
vn -0.5915 0.8042 0.0583
vn -0.5915 0.8042 -0.0583
vn -0.5687 0.8042 -0.1725
vn -0.5241 0.8042 -0.2802
vn -0.4594 0.8042 -0.3770
vn -0.3770 0.8042 -0.4594
vn -0.2802 0.8042 -0.5241
vn -0.1725 0.8042 -0.5687
vn -0.0583 0.8042 -0.5915
vt 0.429435 0.428573
vt 0.430506 0.431749
vt 0.428842 0.428860
vt 0.428315 0.429257
vt 0.427874 0.429748
vt 0.427536 0.430317
vt 0.427314 0.430943
vt 0.427218 0.431601
vt 0.427250 0.432265
vt 0.427484 0.432877
vt 0.427760 0.433467
vt 0.428146 0.433995
vt 0.428631 0.434441
vt 0.429194 0.434786
vt 0.429816 0.435016
vt 0.430476 0.435121
vt 0.431125 0.435015
vt 0.431763 0.434863
vt 0.432363 0.434589
vt 0.432902 0.434201
vt 0.433357 0.433712
vt 0.433710 0.433141
vt 0.433945 0.432508
vt 0.433964 0.431843
vt 0.433938 0.431181
vt 0.433782 0.430534
vt 0.433430 0.429980
vt 0.433044 0.429455
vt 0.432561 0.429016
vt 0.431999 0.428680
vt 0.431380 0.428461
vt 0.430729 0.428369
vt 0.329627 0.550304
vt 0.430072 0.428407
vt 0.236480 0.408699
vt 0.183618 0.451117
vt 0.184846 0.402557
vt 0.526838 0.553391
vt 0.448578 0.277742
vt 0.282311 0.383632
vt 0.354744 0.567708
vt 0.548712 0.532228
vt 0.418154 0.276677
vt 0.568590 0.361259
vt 0.276688 0.413635
vt 0.382683 0.580007
vt 0.565930 0.507189
vt 0.388287 0.282819
vt 0.275929 0.444163
vt 0.412776 0.585449
vt 0.552675 0.335490
vt 0.577918 0.479311
vt 0.359539 0.292612
vt 0.280525 0.474250
vt 0.443189 0.586833
vt 0.531358 0.313905
vt 0.584276 0.449669
vt 0.334219 0.309573
vt 0.291780 0.502666
vt 0.473195 0.581296
vt 0.506285 0.296690
vt 0.584796 0.419371
vt 0.312636 0.331146
vt 0.308359 0.528349
vt 0.501535 0.570148
vt 0.478217 0.284822
vt 0.579482 0.389540
vt 0.294835 0.355893
vt 0.191531 0.620028
vt 0.050638 0.625923
vt 0.159375 0.569719
vt 0.581771 0.312828
vt 0.649911 0.321375
vt 0.602756 0.344421
vt 0.614704 0.491471
vt 0.645353 0.551915
vt 0.599819 0.526271
vt 0.236206 0.446796
vt 0.191991 0.498966
vt 0.556346 0.284710
vt 0.624437 0.280654
vt 0.622638 0.454516
vt 0.664246 0.507875
vt 0.242855 0.484424
vt 0.209656 0.544319
vt 0.525565 0.262343
vt 0.591501 0.245306
vt 0.623313 0.416751
vt 0.674391 0.461121
vt 0.256773 0.520044
vt 0.235868 0.585396
vt 0.491073 0.246093
vt 0.552158 0.216964
vt 0.616643 0.379578
vt 0.675454 0.413305
vt 0.277424 0.552256
vt 0.269615 0.620536
vt 0.453483 0.238791
vt 0.507830 0.196823
vt 0.667175 0.366162
vt 0.304024 0.579759
vt 0.309530 0.648471
vt 0.415287 0.238943
vt 0.460276 0.186241
vt 0.335581 0.601372
vt 0.353913 0.668351
vt 0.377610 0.244240
vt 0.411728 0.185324
vt 0.370955 0.615907
vt 0.401641 0.678311
vt 0.342459 0.259320
vt 0.363795 0.193712
vt 0.407956 0.625810
vt 0.450309 0.678756
vt 0.309931 0.279059
vt 0.318722 0.211483
vt 0.483671 0.618611
vt 0.446219 0.625916
vt 0.281799 0.304722
vt 0.277861 0.237468
vt 0.518825 0.603889
vt 0.498019 0.669702
vt 0.215791 0.311326
vt 0.242932 0.271075
vt 0.551675 0.584699
vt 0.542924 0.651676
vt 0.260650 0.336487
vt 0.195827 0.355476
vt 0.578525 0.557682
vt 0.583692 0.625457
vt 0.246304 0.371705
vt 0.618169 0.591633
vt 0.704591 0.803528
vt 0.889691 0.704591
vt 0.988628 0.889690
vt 0.579863 0.169119
vt 0.564322 0.023212
vt 0.645386 0.057397
vt 0.730658 0.409209
vt 0.833665 0.323829
vt 0.844042 0.401524
vt 0.232896 0.663173
vt 0.095759 0.696744
vt 0.525770 0.143603
vt 0.480038 0.006476
vt 0.720370 0.351650
vt 0.808385 0.247604
vt 0.281898 0.697428
vt 0.154005 0.757370
vt 0.467132 0.130553
vt 0.395406 0.006476
vt 0.336660 0.721413
vt 0.223152 0.805389
vt 0.407268 0.129309
vt 0.313141 0.022638
vt 0.395293 0.733872
vt 0.300564 0.838755
vt 0.348489 0.139909
vt 0.236010 0.054105
vt 0.455065 0.734325
vt 0.383115 0.855952
vt 0.243242 0.193876
vt 0.293187 0.161753
vt 0.513684 0.723343
vt 0.467230 0.856358
vt 0.200546 0.235150
vt 0.166608 0.099617
vt 0.568813 0.701143
vt 0.549542 0.840218
vt 0.166818 0.283796
vt 0.107359 0.157458
vt 0.695982 0.761688
vt 0.626810 0.808231
vt 0.142772 0.337941
vt 0.060315 0.225389
vt 0.618529 0.668634
vt 0.754136 0.702594
vt 0.129564 0.395785
vt 0.026954 0.301070
vt 0.660723 0.627152
vt 0.798933 0.633803
vt 0.127942 0.455262
vt 0.008636 0.381996
vt 0.699811 0.296882
vt 0.768273 0.175932
vt 0.693441 0.578350
vt 0.829130 0.558492
vt 0.138020 0.513993
vt 0.006356 0.465277
vt 0.668772 0.246910
vt 0.713828 0.111566
vt 0.716470 0.524519
vt 0.844066 0.479956
vt 0.020471 0.547684
vt 0.628522 0.203198
vt 0.728861 0.467548
vt 0.977495 0.916569
vt 0.961331 0.940759
vt 0.940759 0.961331
vt 0.916569 0.977495
vt 0.889691 0.988628
vt 0.861156 0.994304
vt 0.832063 0.994304
vt 0.803529 0.988628
vt 0.776650 0.977495
vt 0.715724 0.916569
vt 0.752460 0.961331
vt 0.731888 0.940759
vt 0.704591 0.889690
vt 0.698915 0.861156
vt 0.698915 0.832063
vt 0.715724 0.776650
vt 0.731888 0.752460
vt 0.752460 0.731888
vt 0.776650 0.715724
vt 0.803529 0.704591
vt 0.832063 0.698915
vt 0.861156 0.698915
vt 0.916569 0.715724
vt 0.977495 0.776650
vt 0.940759 0.731888
vt 0.961331 0.752460
vt 0.988628 0.803529
vt 0.994304 0.832063
vt 0.994304 0.861156
s 0
usemtl マテリアル.002
f 1/1/1 33/2/1 2/3/1
f 2/3/2 33/2/2 3/4/2
f 3/4/3 33/2/3 4/5/3
f 4/5/4 33/2/4 5/6/4
f 5/6/5 33/2/5 6/7/5
f 6/7/6 33/2/6 7/8/6
f 7/8/7 33/2/7 8/9/7
f 8/9/8 33/2/8 9/10/8
f 9/10/9 33/2/9 10/11/9
f 10/11/10 33/2/10 11/12/10
f 11/12/11 33/2/11 12/13/11
f 12/13/12 33/2/12 13/14/12
f 13/14/13 33/2/13 14/15/13
f 14/15/14 33/2/14 15/16/14
f 15/16/15 33/2/15 16/17/15
f 16/17/16 33/2/16 17/18/16
f 17/18/17 33/2/17 18/19/17
f 18/19/18 33/2/18 19/20/18
f 19/20/19 33/2/19 20/21/19
f 20/21/20 33/2/20 21/22/20
f 21/22/21 33/2/21 22/23/21
f 22/23/22 33/2/22 23/24/22
f 23/24/23 33/2/23 24/25/23
f 24/25/24 33/2/24 25/26/24
f 25/26/25 33/2/25 26/27/25
f 26/27/26 33/2/26 27/28/26
f 27/28/27 33/2/27 28/29/27
f 28/29/28 33/2/28 29/30/28
f 29/30/29 33/2/29 30/31/29
f 30/31/30 33/2/30 31/32/30
f 20/21/31 148/33/31 19/20/31
f 31/32/32 33/2/32 32/34/32
f 32/34/33 33/2/33 1/1/33
f 47/35/34 80/36/34 79/37/34
f 27/28/35 155/38/35 26/27/35
f 7/8/36 135/39/36 6/7/36
f 14/15/37 142/40/37 13/14/37
f 21/22/38 149/41/38 20/21/38
f 28/29/39 156/42/39 27/28/39
f 8/9/40 136/43/40 7/8/40
f 2/3/41 130/44/41 1/1/41
f 15/16/34 143/45/34 14/15/34
f 22/23/42 150/46/42 21/22/42
f 29/30/43 157/47/43 28/29/43
f 9/10/44 137/48/44 8/9/44
f 16/17/45 144/49/45 15/16/45
f 23/24/46 151/50/46 22/23/46
f 3/4/47 131/51/47 2/3/47
f 30/31/48 158/52/48 29/30/48
f 10/11/49 138/53/49 9/10/49
f 17/18/50 145/54/50 16/17/50
f 24/25/51 152/55/51 23/24/51
f 4/5/52 132/56/52 3/4/52
f 31/32/53 159/57/53 30/31/53
f 11/12/54 139/58/54 10/11/54
f 18/19/55 146/59/55 17/18/55
f 25/26/56 153/60/56 24/25/56
f 5/6/57 133/61/57 4/5/57
f 32/34/58 160/62/58 31/32/58
f 12/13/59 140/63/59 11/12/59
f 19/20/60 147/64/60 18/19/60
f 26/27/61 154/65/61 25/26/61
f 6/7/62 134/66/62 5/6/62
f 1/1/63 161/67/63 32/34/63
f 13/14/64 141/68/64 12/13/64
f 179/69/55 114/70/55 178/71/55
f 35/72/41 66/73/41 34/74/41
f 62/75/43 93/76/43 61/77/43
f 48/78/45 81/79/45 80/36/45
f 36/80/47 67/81/47 35/72/47
f 63/82/48 94/83/48 62/75/48
f 49/84/50 82/85/50 81/79/50
f 37/86/52 68/87/52 36/80/52
f 64/88/53 95/89/53 63/82/53
f 50/90/55 83/91/55 82/85/55
f 38/92/57 69/93/57 37/86/57
f 65/94/58 96/95/58 64/88/58
f 51/96/60 84/97/60 83/91/60
f 39/98/62 70/99/62 38/92/62
f 34/74/63 97/100/63 65/94/63
f 52/101/31 85/102/31 84/97/31
f 40/103/36 71/104/36 39/98/36
f 53/105/38 86/106/38 85/102/38
f 41/107/40 72/108/40 40/103/40
f 54/109/42 87/110/42 86/106/42
f 42/111/44 73/112/44 41/107/44
f 55/113/46 88/114/46 87/110/46
f 43/115/49 74/116/49 42/111/49
f 57/117/51 88/114/51 56/118/51
f 44/119/54 75/120/54 43/115/54
f 58/121/56 89/122/56 57/117/56
f 44/119/59 77/123/59 76/124/59
f 59/125/61 90/126/61 58/121/61
f 45/127/64 78/128/64 77/123/64
f 60/129/35 91/130/35 59/125/35
f 46/131/37 79/37/37 78/128/37
f 61/77/39 92/132/39 60/129/39
f 113/133/65 121/134/65 129/135/65
f 165/136/57 102/137/57 101/138/57
f 192/139/58 129/140/58 128/141/58
f 180/142/60 115/143/60 179/69/60
f 166/144/62 103/145/62 102/137/62
f 193/146/63 98/147/63 129/140/63
f 181/148/31 116/149/31 180/142/31
f 167/150/36 104/151/36 103/145/36
f 182/152/38 117/153/38 181/148/38
f 168/154/40 105/155/40 104/151/40
f 183/156/42 118/157/42 182/152/42
f 169/158/44 106/159/44 105/155/44
f 184/160/46 119/161/46 183/156/46
f 171/162/49 106/159/49 170/163/49
f 185/164/51 120/165/51 184/160/51
f 172/166/54 107/167/54 171/162/54
f 186/168/56 121/169/56 185/164/56
f 173/170/59 108/171/59 172/166/59
f 186/168/61 123/172/61 122/173/61
f 174/174/64 109/175/64 173/170/64
f 187/176/35 124/177/35 123/172/35
f 175/178/37 110/179/37 174/174/37
f 188/180/39 125/181/39 124/177/39
f 176/182/34 111/183/34 175/178/34
f 162/184/41 99/185/41 98/147/41
f 189/186/43 126/187/43 125/181/43
f 177/188/45 112/189/45 176/182/45
f 163/190/47 100/191/47 99/185/47
f 190/192/48 127/193/48 126/187/48
f 178/71/50 113/194/50 177/188/50
f 164/195/52 101/138/52 100/191/52
f 191/196/53 128/141/53 127/193/53
f 34/74/66 131/51/66 35/72/66
f 36/80/67 131/51/67 132/56/67
f 36/80/68 133/61/68 37/86/68
f 37/86/69 134/66/69 38/92/69
f 38/92/70 135/39/70 39/98/70
f 40/103/71 135/39/71 136/43/71
f 40/103/72 137/48/72 41/107/72
f 41/107/73 138/53/73 42/111/73
f 42/111/74 139/58/74 43/115/74
f 44/119/75 139/58/75 140/63/75
f 45/127/76 140/63/76 141/68/76
f 45/127/77 142/40/77 46/131/77
f 46/131/78 143/45/78 47/35/78
f 48/78/79 143/45/79 144/49/79
f 48/78/80 145/54/80 49/84/80
f 50/90/81 145/54/81 146/59/81
f 50/90/82 147/64/82 51/96/82
f 52/101/83 147/64/83 148/33/83
f 52/101/84 149/41/84 53/105/84
f 54/109/85 149/41/85 150/46/85
f 55/113/86 150/46/86 151/50/86
f 55/113/87 152/55/87 56/118/87
f 56/118/88 153/60/88 57/117/88
f 57/117/89 154/65/89 58/121/89
f 59/125/90 154/65/90 155/38/90
f 59/125/91 156/42/91 60/129/91
f 60/129/92 157/47/92 61/77/92
f 61/77/93 158/52/93 62/75/93
f 62/75/94 159/57/94 63/82/94
f 63/82/95 160/62/95 64/88/95
f 64/88/96 161/67/96 65/94/96
f 65/94/97 130/44/97 34/74/97
f 67/81/98 162/184/98 66/73/98
f 68/87/99 163/190/99 67/81/99
f 69/93/100 164/195/100 68/87/100
f 70/99/101 165/136/101 69/93/101
f 71/104/102 166/144/102 70/99/102
f 72/108/103 167/150/103 71/104/103
f 73/112/104 168/154/104 72/108/104
f 73/112/105 170/163/105 169/158/105
f 75/120/106 170/163/106 74/116/106
f 76/124/107 171/162/107 75/120/107
f 77/123/108 172/166/108 76/124/108
f 77/123/109 174/174/109 173/170/109
f 78/128/110 175/178/110 174/174/110
f 79/37/111 176/182/111 175/178/111
f 80/36/112 177/188/112 176/182/112
f 82/85/113 177/188/113 81/79/113
f 82/85/114 179/69/114 178/71/114
f 84/97/115 179/69/115 83/91/115
f 85/102/116 180/142/116 84/97/116
f 86/106/117 181/148/117 85/102/117
f 86/106/118 183/156/118 182/152/118
f 87/110/119 184/160/119 183/156/119
f 88/114/120 185/164/120 184/160/120
f 89/122/121 186/168/121 185/164/121
f 91/130/122 186/168/122 90/126/122
f 92/132/123 187/176/123 91/130/123
f 92/132/124 189/186/124 188/180/124
f 94/83/125 189/186/125 93/76/125
f 94/83/126 191/196/126 190/192/126
f 95/89/127 192/139/127 191/196/127
f 97/100/128 192/139/128 96/95/128
f 66/73/129 193/146/129 97/100/129
f 20/21/31 149/41/31 148/33/31
f 47/35/34 48/78/34 80/36/34
f 27/28/35 156/42/35 155/38/35
f 7/8/36 136/43/36 135/39/36
f 14/15/37 143/45/37 142/40/37
f 21/22/38 150/46/38 149/41/38
f 28/29/39 157/47/39 156/42/39
f 8/9/40 137/48/40 136/43/40
f 2/3/41 131/51/41 130/44/41
f 15/16/34 144/49/34 143/45/34
f 22/23/42 151/50/42 150/46/42
f 29/30/43 158/52/43 157/47/43
f 9/10/44 138/53/44 137/48/44
f 16/17/45 145/54/45 144/49/45
f 23/24/46 152/55/46 151/50/46
f 3/4/47 132/56/47 131/51/47
f 30/31/48 159/57/48 158/52/48
f 10/11/49 139/58/49 138/53/49
f 17/18/50 146/59/50 145/54/50
f 24/25/51 153/60/51 152/55/51
f 4/5/52 133/61/52 132/56/52
f 31/32/53 160/62/53 159/57/53
f 11/12/54 140/63/54 139/58/54
f 18/19/55 147/64/55 146/59/55
f 25/26/56 154/65/56 153/60/56
f 5/6/57 134/66/57 133/61/57
f 32/34/58 161/67/58 160/62/58
f 12/13/59 141/68/59 140/63/59
f 19/20/60 148/33/60 147/64/60
f 26/27/61 155/38/61 154/65/61
f 6/7/62 135/39/62 134/66/62
f 1/1/63 130/44/63 161/67/63
f 13/14/64 142/40/64 141/68/64
f 179/69/55 115/143/55 114/70/55
f 35/72/41 67/81/41 66/73/41
f 62/75/43 94/83/43 93/76/43
f 48/78/45 49/84/45 81/79/45
f 36/80/47 68/87/47 67/81/47
f 63/82/48 95/89/48 94/83/48
f 49/84/50 50/90/50 82/85/50
f 37/86/52 69/93/52 68/87/52
f 64/88/53 96/95/53 95/89/53
f 50/90/55 51/96/55 83/91/55
f 38/92/57 70/99/57 69/93/57
f 65/94/58 97/100/58 96/95/58
f 51/96/60 52/101/60 84/97/60
f 39/98/62 71/104/62 70/99/62
f 34/74/63 66/73/63 97/100/63
f 52/101/31 53/105/31 85/102/31
f 40/103/36 72/108/36 71/104/36
f 53/105/38 54/109/38 86/106/38
f 41/107/40 73/112/40 72/108/40
f 54/109/42 55/113/42 87/110/42
f 42/111/44 74/116/44 73/112/44
f 55/113/46 56/118/46 88/114/46
f 43/115/49 75/120/49 74/116/49
f 57/117/51 89/122/51 88/114/51
f 44/119/54 76/124/54 75/120/54
f 58/121/56 90/126/56 89/122/56
f 44/119/59 45/127/59 77/123/59
f 59/125/61 91/130/61 90/126/61
f 45/127/64 46/131/64 78/128/64
f 60/129/35 92/132/35 91/130/35
f 46/131/37 47/35/37 79/37/37
f 61/77/39 93/76/39 92/132/39
f 129/135/65 98/197/65 99/198/65
f 99/198/65 100/199/65 101/200/65
f 101/200/65 102/201/65 103/202/65
f 103/202/65 104/203/65 105/204/65
f 105/204/65 106/205/65 109/206/65
f 106/205/65 107/207/65 109/206/65
f 107/207/65 108/208/65 109/206/65
f 109/206/65 110/209/65 111/210/65
f 111/210/65 112/211/65 113/133/65
f 113/133/65 114/212/65 115/213/65
f 115/213/65 116/214/65 117/215/65
f 117/215/65 118/216/65 119/217/65
f 119/217/65 120/218/65 121/134/65
f 121/134/65 122/219/65 125/220/65
f 122/219/65 123/221/65 125/220/65
f 123/221/65 124/222/65 125/220/65
f 125/220/65 126/223/65 127/224/65
f 127/224/65 128/225/65 129/135/65
f 129/135/65 99/198/65 105/204/65
f 99/198/65 101/200/65 105/204/65
f 101/200/65 103/202/65 105/204/65
f 109/206/65 111/210/65 113/133/65
f 113/133/65 115/213/65 121/134/65
f 115/213/65 117/215/65 121/134/65
f 117/215/65 119/217/65 121/134/65
f 125/220/65 127/224/65 129/135/65
f 105/204/65 109/206/65 113/133/65
f 121/134/65 125/220/65 129/135/65
f 129/135/65 105/204/65 113/133/65
f 165/136/57 166/144/57 102/137/57
f 192/139/58 193/146/58 129/140/58
f 180/142/60 116/149/60 115/143/60
f 166/144/62 167/150/62 103/145/62
f 193/146/63 162/184/63 98/147/63
f 181/148/31 117/153/31 116/149/31
f 167/150/36 168/154/36 104/151/36
f 182/152/38 118/157/38 117/153/38
f 168/154/40 169/158/40 105/155/40
f 183/156/42 119/161/42 118/157/42
f 169/158/44 170/163/44 106/159/44
f 184/160/46 120/165/46 119/161/46
f 171/162/49 107/167/49 106/159/49
f 185/164/51 121/169/51 120/165/51
f 172/166/54 108/171/54 107/167/54
f 186/168/56 122/173/56 121/169/56
f 173/170/59 109/175/59 108/171/59
f 186/168/61 187/176/61 123/172/61
f 174/174/64 110/179/64 109/175/64
f 187/176/35 188/180/35 124/177/35
f 175/178/37 111/183/37 110/179/37
f 188/180/39 189/186/39 125/181/39
f 176/182/34 112/189/34 111/183/34
f 162/184/41 163/190/41 99/185/41
f 189/186/43 190/192/43 126/187/43
f 177/188/45 113/194/45 112/189/45
f 163/190/47 164/195/47 100/191/47
f 190/192/48 191/196/48 127/193/48
f 178/71/50 114/70/50 113/194/50
f 164/195/52 165/136/52 101/138/52
f 191/196/53 192/139/53 128/141/53
f 34/74/66 130/44/66 131/51/66
f 36/80/67 35/72/67 131/51/67
f 36/80/68 132/56/68 133/61/68
f 37/86/69 133/61/69 134/66/69
f 38/92/70 134/66/70 135/39/70
f 40/103/71 39/98/71 135/39/71
f 40/103/72 136/43/72 137/48/72
f 41/107/73 137/48/73 138/53/73
f 42/111/74 138/53/74 139/58/74
f 44/119/75 43/115/75 139/58/75
f 45/127/76 44/119/76 140/63/76
f 45/127/77 141/68/77 142/40/77
f 46/131/78 142/40/78 143/45/78
f 48/78/79 47/35/79 143/45/79
f 48/78/80 144/49/80 145/54/80
f 50/90/81 49/84/81 145/54/81
f 50/90/82 146/59/82 147/64/82
f 52/101/83 51/96/83 147/64/83
f 52/101/84 148/33/84 149/41/84
f 54/109/85 53/105/85 149/41/85
f 55/113/86 54/109/86 150/46/86
f 55/113/87 151/50/87 152/55/87
f 56/118/88 152/55/88 153/60/88
f 57/117/89 153/60/89 154/65/89
f 59/125/90 58/121/90 154/65/90
f 59/125/91 155/38/91 156/42/91
f 60/129/92 156/42/92 157/47/92
f 61/77/93 157/47/93 158/52/93
f 62/75/94 158/52/94 159/57/94
f 63/82/95 159/57/95 160/62/95
f 64/88/96 160/62/96 161/67/96
f 65/94/97 161/67/97 130/44/97
f 67/81/98 163/190/98 162/184/98
f 68/87/99 164/195/99 163/190/99
f 69/93/100 165/136/100 164/195/100
f 70/99/101 166/144/101 165/136/101
f 71/104/102 167/150/102 166/144/102
f 72/108/103 168/154/103 167/150/103
f 73/112/104 169/158/104 168/154/104
f 73/112/105 74/116/105 170/163/105
f 75/120/106 171/162/106 170/163/106
f 76/124/107 172/166/107 171/162/107
f 77/123/108 173/170/108 172/166/108
f 77/123/109 78/128/109 174/174/109
f 78/128/110 79/37/110 175/178/110
f 79/37/111 80/36/111 176/182/111
f 80/36/112 81/79/112 177/188/112
f 82/85/113 178/71/113 177/188/113
f 82/85/114 83/91/114 179/69/114
f 84/97/115 180/142/115 179/69/115
f 85/102/116 181/148/116 180/142/116
f 86/106/117 182/152/117 181/148/117
f 86/106/118 87/110/118 183/156/118
f 87/110/119 88/114/119 184/160/119
f 88/114/120 89/122/120 185/164/120
f 89/122/121 90/126/121 186/168/121
f 91/130/122 187/176/122 186/168/122
f 92/132/123 188/180/123 187/176/123
f 92/132/124 93/76/124 189/186/124
f 94/83/125 190/192/125 189/186/125
f 94/83/126 95/89/126 191/196/126
f 95/89/127 96/95/127 192/139/127
f 97/100/128 193/146/128 192/139/128
f 66/73/129 162/184/129 193/146/129
