# Blender 4.4.1
# www.blender.org
mtllib player00.mtl
o 円錐
v 0.000000 0.233026 0.151309
v 0.009755 0.232346 0.151988
v 0.019134 0.230334 0.154000
v 0.027779 0.227067 0.157267
v 0.035355 0.222670 0.161664
v 0.041573 0.217313 0.167022
v 0.046194 0.211200 0.173134
v 0.049039 0.204568 0.179767
v 0.050000 0.197670 0.186664
v 0.049039 0.190773 0.193562
v 0.046194 0.184140 0.200194
v 0.041573 0.178028 0.206307
v 0.035355 0.172670 0.211664
v 0.027779 0.168273 0.216061
v 0.019134 0.165006 0.219328
v 0.009755 0.162994 0.221340
v 0.000000 0.162315 0.222019
v -0.009755 0.162994 0.221340
v -0.019134 0.165006 0.219328
v -0.027779 0.168273 0.216061
v -0.035355 0.172670 0.211664
v -0.041573 0.178028 0.206307
v -0.046194 0.184140 0.200194
v -0.049039 0.190773 0.193562
v -0.050000 0.197670 0.186664
v -0.049039 0.204568 0.179767
v -0.046194 0.211200 0.173134
v -0.041573 0.217313 0.167022
v -0.035355 0.222670 0.161664
v -0.027779 0.227067 0.157267
v -0.019134 0.230334 0.154000
v -0.009755 0.232346 0.151988
v 0.000000 0.409802 0.398796
v 0.250000 0.250000 -0.250000
v 0.250000 -0.250000 -0.250000
v 0.250000 0.250000 0.250000
v 0.250000 -0.250000 0.250000
v -0.250000 0.250000 -0.250000
v -0.250000 -0.250000 -0.250000
v -0.250000 0.250000 0.250000
v -0.250000 -0.250000 0.250000
v 0.046288 -0.247413 0.411394
v 0.046288 -0.147413 0.411394
v 0.046288 -0.247413 0.211394
v 0.046288 -0.147413 0.211394
v 0.246288 -0.247413 0.411394
v 0.246288 -0.147413 0.411394
v 0.246288 -0.247413 0.211394
v 0.246288 -0.147413 0.211394
v -0.242473 -0.247413 0.411394
v -0.242473 -0.147413 0.411394
v -0.242473 -0.247413 0.211394
v -0.242473 -0.147413 0.211394
v -0.042473 -0.247413 0.411394
v -0.042473 -0.147413 0.411394
v -0.042473 -0.247413 0.211394
v -0.042473 -0.147413 0.211394
vn 0.0967 0.8099 -0.5785
vn 0.2864 0.7832 -0.5518
vn 0.4650 0.7309 -0.4995
vn 0.6258 0.6549 -0.4235
vn 0.7626 0.5582 -0.3268
vn 0.8700 0.4445 -0.2131
vn 0.9440 0.3182 -0.0868
vn 0.9818 0.1841 0.0473
vn 0.9818 0.0473 0.1841
vn 0.9440 -0.0868 0.3182
vn 0.8700 -0.2131 0.4445
vn 0.7626 -0.3268 0.5582
vn 0.6258 -0.4235 0.6549
vn 0.4650 -0.4995 0.7309
vn 0.2864 -0.5518 0.7832
vn 0.0967 -0.5785 0.8099
vn -0.0967 -0.5785 0.8099
vn -0.2864 -0.5518 0.7832
vn -0.4650 -0.4995 0.7309
vn -0.6258 -0.4235 0.6549
vn -0.7626 -0.3268 0.5582
vn -0.8700 -0.2131 0.4445
vn -0.9440 -0.0868 0.3182
vn -0.9818 0.0473 0.1841
vn -0.9818 0.1841 0.0473
vn -0.9440 0.3182 -0.0868
vn -0.8700 0.4445 -0.2131
vn -0.7626 0.5582 -0.3268
vn -0.6258 0.6549 -0.4235
vn -0.4650 0.7309 -0.4995
vn -0.0000 -0.7071 -0.7071
vn -0.2864 0.7832 -0.5518
vn -0.0967 0.8099 -0.5785
vn -0.0000 1.0000 -0.0000
vn -0.0000 -0.0000 1.0000
vn -1.0000 -0.0000 -0.0000
vn -0.0000 -1.0000 -0.0000
vn 1.0000 -0.0000 -0.0000
vn -0.0000 -0.0000 -1.0000
vt 0.250000 0.490000
vt 0.250000 0.250000
vt 0.296822 0.485388
vt 0.341844 0.471731
vt 0.383337 0.449553
vt 0.419706 0.419706
vt 0.449553 0.383337
vt 0.471731 0.341844
vt 0.485388 0.296822
vt 0.490000 0.250000
vt 0.485388 0.203178
vt 0.471731 0.158156
vt 0.449553 0.116663
vt 0.419706 0.080294
vt 0.383337 0.050447
vt 0.341844 0.028269
vt 0.296822 0.014612
vt 0.250000 0.010000
vt 0.203178 0.014612
vt 0.158156 0.028269
vt 0.116663 0.050447
vt 0.080294 0.080294
vt 0.050447 0.116663
vt 0.028269 0.158156
vt 0.014612 0.203178
vt 0.010000 0.250000
vt 0.014612 0.296822
vt 0.028269 0.341844
vt 0.050447 0.383337
vt 0.080294 0.419706
vt 0.116663 0.449553
vt 0.158156 0.471731
vt 0.750000 0.490000
vt 0.796822 0.485388
vt 0.841844 0.471731
vt 0.883337 0.449553
vt 0.919706 0.419706
vt 0.949553 0.383337
vt 0.971731 0.341844
vt 0.985388 0.296822
vt 0.990000 0.250000
vt 0.985388 0.203178
vt 0.971731 0.158156
vt 0.949553 0.116663
vt 0.919706 0.080294
vt 0.883337 0.050447
vt 0.841844 0.028269
vt 0.796822 0.014612
vt 0.750000 0.010000
vt 0.703178 0.014612
vt 0.658156 0.028269
vt 0.616663 0.050447
vt 0.580294 0.080294
vt 0.550447 0.116663
vt 0.528269 0.158156
vt 0.514612 0.203178
vt 0.510000 0.250000
vt 0.514612 0.296822
vt 0.528269 0.341844
vt 0.550447 0.383337
vt 0.580294 0.419706
vt 0.616663 0.449553
vt 0.658156 0.471731
vt 0.703178 0.485388
vt 0.203178 0.485388
vt 0.000000 0.000000
vt 0.375000 0.000000
vt 0.625000 0.000000
vt 0.625000 0.250000
vt 0.375000 0.250000
vt 0.625000 0.500000
vt 0.375000 0.500000
vt 0.625000 0.750000
vt 0.375000 0.750000
vt 0.625000 1.000000
vt 0.375000 1.000000
vt 0.125000 0.500000
vt 0.125000 0.750000
vt 0.875000 0.500000
vt 0.875000 0.750000
s 0
usemtl マテリアル
f 1/1/1 33/2/1 2/3/1
f 2/3/2 33/2/2 3/4/2
f 3/4/3 33/2/3 4/5/3
f 4/5/4 33/2/4 5/6/4
f 5/6/5 33/2/5 6/7/5
f 6/7/6 33/2/6 7/8/6
f 7/8/7 33/2/7 8/9/7
f 8/9/8 33/2/8 9/10/8
f 9/10/9 33/2/9 10/11/9
f 10/11/10 33/2/10 11/12/10
f 11/12/11 33/2/11 12/13/11
f 12/13/12 33/2/12 13/14/12
f 13/14/13 33/2/13 14/15/13
f 14/15/14 33/2/14 15/16/14
f 15/16/15 33/2/15 16/17/15
f 16/17/16 33/2/16 17/18/16
f 17/18/17 33/2/17 18/19/17
f 18/19/18 33/2/18 19/20/18
f 19/20/19 33/2/19 20/21/19
f 20/21/20 33/2/20 21/22/20
f 21/22/21 33/2/21 22/23/21
f 22/23/22 33/2/22 23/24/22
f 23/24/23 33/2/23 24/25/23
f 24/25/24 33/2/24 25/26/24
f 25/26/25 33/2/25 26/27/25
f 26/27/26 33/2/26 27/28/26
f 27/28/27 33/2/27 28/29/27
f 28/29/28 33/2/28 29/30/28
f 29/30/29 33/2/29 30/31/29
f 30/31/30 33/2/30 31/32/30
f 1/33/31 2/34/31 3/35/31 4/36/31 5/37/31 6/38/31 7/39/31 8/40/31 9/41/31 10/42/31 11/43/31 12/44/31 13/45/31 14/46/31 15/47/31 16/48/31 17/49/31 18/50/31 19/51/31 20/52/31 21/53/31 22/54/31 23/55/31 24/56/31 25/57/31 26/58/31 27/59/31 28/60/31 29/61/31 30/62/31 31/63/31 32/64/31
f 31/32/32 33/2/32 32/65/32
f 32/65/33 33/2/33 1/1/33
f 42/67/36 43/68/36 45/69/36 44/70/36
f 44/70/39 45/69/39 49/71/39 48/72/39
f 48/72/38 49/71/38 47/73/38 46/74/38
f 46/74/35 47/73/35 43/75/35 42/76/35
f 44/77/37 48/72/37 46/74/37 42/78/37
f 49/71/34 45/79/34 43/80/34 47/73/34
f 50/67/36 51/68/36 53/69/36 52/70/36
f 52/70/39 53/69/39 57/71/39 56/72/39
f 56/72/38 57/71/38 55/73/38 54/74/38
f 54/74/35 55/73/35 51/75/35 50/76/35
f 52/77/37 56/72/37 54/74/37 50/78/37
f 57/71/34 53/79/34 51/80/34 55/73/34
usemtl Material
f 34/66/34 38/66/34 40/66/34 36/66/34
f 37/66/35 36/66/35 40/66/35 41/66/35
f 41/66/36 40/66/36 38/66/36 39/66/36
f 39/66/37 35/66/37 37/66/37 41/66/37
f 35/66/38 34/66/38 36/66/38 37/66/38
f 39/66/39 38/66/39 34/66/39 35/66/39
